{"title":"The.Frankestein.Syndrome.2010.DVDSCR.XviD-XtremE","uid":6393575,"size":1140112566,"categoryP":"video","categoryS":"movies","magnet":"?xt=urn:btih:600b3542fde7ffe57f2b1caddf679dd170d57ff7&amp;dn=The.Frankestein.Syndrome.2010.DVDSCR.XviD-XtremE&amp;tr=udp%3A%2F%2Ftracker.openbittorrent.com%3A80&amp;tr=udp%3A%2F%2Fopen.demonii.com%3A1337&amp;tr=udp%3A%2F%2Ftracker.coppersurfer.tk%3A6969&amp;tr=udp%3A%2F%2Fexodus.desync.com%3A6969","seeders":1,"leechers":0,"uploader":"TvTeam","files":6,"time":1305440199,"description":". \n  &lt;a href=&quot;\nhttp://www.torrenting.com/&quot; rel=&quot;nofollow&quot; target=&quot;_NEW&quot;&gt;\nhttp://www.torrenting.com/&lt;/a&gt;        :     Greatest Movie Tracker on The Net!!!\n &lt;a href=&quot;\nhttp://www.Torrenting.com&quot; rel=&quot;nofollow&quot; target=&quot;_NEW&quot;&gt;\nhttp://www.Torrenting.com&lt;/a&gt;          :     Once &amp; For all ;)\n\n\n               www . Torrenting . Com \n\n(((((((((((((= Enjoy No RAR releases =))))))))))))))))))))\n\n\n...................................NFO:....................................\n\n.The.Frankestein.Syndrome.2010.DVDSCR.XviD-XtremE\n\n[img]http://img716.imageshack.us/img716/1772/frankensteinsyndrome1.jpg[/img]\n\nIMDB Link\nhttp://www.imdb.com/title/tt1337686/\n\n\nTrailer\n\nDescription:\n\nA group of researchers conducting illegal stem cell research discover a cell anomaly that has the potential to regenerate dead tissue. Unable to conduct legal human trials, the researchers turn to corpses to test their serum. \nCast:\n\nDirector:\nSean Tretta\nWriter: Mary Shelley (novel), Sean Tretta (screenplay)\nStars:\nTiffany Shepis\n\n\nScreenshots\n[img]http://www.grinshare.com/img/JNJBIH.jpg[/img]\n[img]http://www.grinshare.com/img/DWB531.jpg[/img]\n[img]http://www.grinshare.com/img/FR81RH.jpg[/img]\n[img]http://www.grinshare.com/img/Z1VGEM.jpg[/img]\n[img]http://www.grinshare.com/img/1TE0N0.jpg[/img]\n\n\nGeneral\nComplete name                    : The.Frankestein.Syndrome.2010.DVDSCR.XviD-XtremE.avi\nFormat                           : AVI\nFormat/Info                      : Audio Video Interleave\nFile size                        : 1.05 GiB\nDuration                         : 1h 29mn\nOverall bit rate                 : 1 687 Kbps\nWriting application              : VirtualDubMod 1.5.4.1 (build 2178/release)\nWriting library                  : VirtualDubMod build 2178/release\n\nVideo\nID                               : 0\nFormat                           : MPEG-4 Visual\nFormat profile                   : Advanced Simple@L5\nFormat settings, BVOP            : No\nFormat settings, QPel            : No\nFormat settings, GMC             : No warppoints\nFormat settings, Matrix          : Custom\nCodec ID                         : XVID\nCodec ID/Hint                    : XviD\nDuration                         : 1h 29mn\nBit rate                         : 1 488 Kbps\nWidth                            : 720 pixels\nHeight                           : 304 pixels\nDisplay aspect ratio             : 2.35:1\nFrame rate                       : 23.976 fps\nColor space                      : YUV\nChroma subsampling               : 4:2:0\nBit depth                        : 8 bits\nScan type                        : Progressive\nCompression mode                 : Lossy\nBits/(Pixel*Frame)               : 0.284\nStream size                      : 949 MiB (88%)\nWriting library                  : XviD 1.3.0.dev55\n\nAudio\nID                               : 1\nFormat                           : AC-3\nFormat/Info                      : Audio Coding 3\nMode extension                   : CM (complete main)\nCodec ID                         : 2000\nDuration                         : 1h 29mn\nBit rate mode                    : Constant\nBit rate                         : 192 Kbps\nChannel(s)                       : 2 channels\nChannel positions                : Front: L R\nSampling rate                    : 48.0 KHz\nBit depth                        : 16 bits\nCompression mode                 : Lossy\nStream size                      : 122 MiB (11%)\nAlignment                        : Split accross interleaves\nInterleave, duration             : 96 ms (2.30 video frames)\nInterleave, preload duration     : 96 ms\nLanguage                         : English\n\n\n\n\n\nNote:\nSpecial thanks to our friend.\n\n\nEncoded and created by thefuzz [XtremE]\n\n  \nEnjoy!\n\nRespects to CaptainHomey, Cyanide, CM8, Rx, Pirate666, THC, ELEKTRI4KA and Killerhz","torrent":{"xt":"urn:btih:600b3542fde7ffe57f2b1caddf679dd170d57ff7","amp;dn":"The.Frankestein.Syndrome.2010.DVDSCR.XviD-XtremE","amp;tr":["udp%3A%2F%2Ftracker.openbittorrent.com%3A80","udp%3A%2F%2Fopen.demonii.com%3A1337","udp%3A%2F%2Ftracker.coppersurfer.tk%3A6969","udp%3A%2F%2Fexodus.desync.com%3A6969"],"infoHash":"600b3542fde7ffe57f2b1caddf679dd170d57ff7","infoHashBuffer":{"type":"Buffer","data":[96,11,53,66,253,231,255,229,127,43,28,173,223,103,157,209,112,213,127,247]},"announce":[],"urlList":[]}}